<?xml version="1.0" encoding="UTF-8" standalone="no"?>
<!DOCTYPE svg PUBLIC "-//W3C//DTD SVG 1.1//EN" "http://www.w3.org/Graphics/SVG/1.1/DTD/svg11.dtd">
<svg width="100%" height="100%" viewBox="0 0 24 24" version="1.1" xmlns="http://www.w3.org/2000/svg" xmlns:xlink="http://www.w3.org/1999/xlink" xml:space="preserve" xmlns:serif="http://www.serif.com/" style="fill-rule:evenodd;clip-rule:evenodd;stroke-linejoin:round;stroke-miterlimit:2;">
    <g transform="matrix(0.127009,-2.90658e-18,2.90658e-18,0.127009,-111.813,-20.2656)">
        <path d="M1027.16,332.704L1009.73,315.278C999.437,321.161 987.525,324.523 974.833,324.523C935.933,324.523 904.351,292.941 904.351,254.042C904.351,215.142 935.933,183.56 974.833,183.56C978.046,183.56 981.209,183.776 984.311,184.194L914.56,254.048L949.392,288.88L983.334,288.88L948.489,254.036L1027.11,175.345C1012.14,165.375 994.158,159.56 974.833,159.56C922.687,159.56 880.351,201.896 880.351,254.042C880.351,306.187 922.687,348.523 974.833,348.523C994.179,348.523 1012.18,342.696 1027.16,332.704ZM1035,181.212L1017.93,198.282C1034.58,211.18 1045.31,231.368 1045.31,254.042C1045.31,267.999 1041.25,281.014 1034.24,291.965L996.212,253.938L1031.05,219.1L997.109,219.1L962.27,253.938L1035.11,326.777C1056,309.443 1069.31,283.285 1069.31,254.042C1069.31,224.746 1055.95,198.547 1035,181.212Z"/>
    </g>
</svg>
